<?xml version="1.0" encoding="UTF-8"?>
<svg version="1.1" viewBox="0 0 96 32" xmlns="http://www.w3.org/2000/svg" xmlns:xlink="http://www.w3.org/1999/xlink">
<g fill="none" fill-rule="evenodd">
<g transform="translate(-20 -14)">
<g transform="translate(20 14)">
<path d="m67.016 26.524h-2.4169c-0.29839 0-0.54282-0.2428-0.54282-0.54v-3.0476c0-0.2968 0.24443-0.5124 0.54282-0.5124h2.4169c0.29879 0 0.54322 0.2156 0.54322 0.5124v3.0476c0 0.2972-0.24443 0.54-0.54322 0.54" fill="#fff"/>
<mask fill="#fff">
<use xlink:href="#path-1"/>
</mask>
<path d="m12.002 26.524h-2.4983c-0.29839 0-0.54322-0.2696-0.54322-0.5664v-8.8744c0-2.346-0.40711-2.9396-2.2264-2.9396-0.92295 0-2.0094 0.3232-3.1498 0.9172v10.897c0 0.2968-0.24443 0.5664-0.54322 0.5664h-2.4979c-0.29879 0-0.54322-0.2696-0.54322-0.5664v-25.126c0-0.2972 0.24443-0.5392 0.54322-0.5392h2.4979c0.29879 0 0.54322 0.242 0.54322 0.5392v11.29c1.0317-0.6212 2.1725-0.9984 4.1001-0.9984 3.747 0 4.8608 2.6436 4.8608 5.9608v8.8744c0 0.2968-0.24443 0.5664-0.54322 0.5664" fill="#fff" mask="url(#mask-2)"/>
<path d="m22.355 17.839c0-2.2116-1.0043-3.6416-2.9054-3.6416-1.9011 0-2.9058 1.43-2.9058 3.6416v2.1844c0 2.2124 1.0047 3.6412 2.9058 3.6412 1.9011 0 2.9054-1.4288 2.9054-3.6412v-2.1844zm-2.9054 8.9008c-4.2632 0-6.4897-2.8592-6.4897-6.7164v-2.1844c0-3.8572 2.2264-6.7164 6.4897-6.7164 4.2632 0 6.4897 2.8592 6.4897 6.7164v2.1844c0 3.8572-2.2264 6.7164-6.4897 6.7164zm14.479-0.18828c-0.65195 0.1072-1.2491 0.1884-1.8463 0.1884-3.0685 0-4.3176-0.6744-4.3176-4.2884v-8.4696l-2.5526-0.378c-0.29839-0.0532-0.54322-0.2424-0.54322-0.5392v-1.214c0-0.296 0.24483-0.5392 0.54322-0.5392h2.5526v-2.2124c0-0.296 0.24443-0.4852 0.54322-0.5392l2.5252-0.4312h0.10832c0.24443 0 0.4345 0.1344 0.4345 0.4048v2.778h2.4439c0.29879 0 0.54322 0.2432 0.54322 0.5392v1.5916c0 0.2968-0.24443 0.5396-0.54322 0.5396h-2.4439v8.4696c0 1.3484 0.081342 1.51 1.0591 1.51h1.4392c0.35315 0 0.5702 0.1352 0.5702 0.4048v1.6992c0 0.2696-0.16268 0.432-0.51584 0.486m10.077-9.0367c0-2.1032-1.1674-3.3172-2.851-3.3172-1.6836 0-2.9058 1.1868-2.9058 3.3172v0.1076h5.7568v-0.1076zm3.0685 2.6436h-8.8522v0.0808c0 1.5648 0.65154 3.4256 3.2585 3.4256 1.982 0 3.8557-0.1616 4.9961-0.2696h0.081745c0.27141 0 0.48846 0.1352 0.48846 0.4048v1.7804c0 0.4312-0.081342 0.6204-0.5702 0.7008-1.765 0.3244-2.824 0.4584-5.2675 0.4584-2.7157 0-6.5714-1.456-6.5714-6.77v-1.9964c0-4.2068 2.3626-6.8508 6.517-6.8508 4.1815 0 6.4623 2.8324 6.4623 6.8508v1.5112c0 0.4312-0.16268 0.674-0.54282 0.674zm4.3779 11.731h-2.5252c-0.29919 0-0.54322-0.2696-0.54322-0.5664v-24.786c0-0.2968 0.24403-0.54 0.54322-0.54h2.5252c0.29839 0 0.51584 0.2432 0.51584 0.54v24.786c0 0.2968-0.21745 0.5664-0.51584 0.5664m6.4964-5.15c-1.0587 0-3.3399-0.1344-4.8608-0.5392-0.32537-0.0812-0.51584-0.2968-0.51584-0.62v-1.6188c0-0.2156 0.19047-0.4312 0.46188-0.4312h0.10872c1.3035 0.1616 3.7474 0.296 4.5616 0.296 1.6836 0 1.9281-0.5664 1.9281-1.2948 0-0.5124-0.32577-0.8356-1.1948-1.3756l-3.72-2.2656c-1.3309-0.8092-2.2812-2.158-2.2812-3.722 0-2.6976 1.7106-4.046 5.1596-4.046 2.1991 0 3.4482 0.2428 4.833 0.54 0.32617 0.0804 0.48886 0.296 0.48886 0.6192v1.5652c0 0.324-0.16268 0.5124-0.4345 0.5124h-0.10832c-0.76027-0.108-2.9328-0.3236-4.4807-0.3236-1.3035 0-1.8737 0.296-1.8737 1.1328 0 0.4312 0.40752 0.7008 1.0864 1.1056l3.5569 2.1576c2.2812 1.376 2.6066 2.7244 2.6066 4.1 0 2.3472-1.7646 4.208-5.3219 4.208m22.564-0.21564h-2.4987c-0.29839 0-0.54242-0.2696-0.54242-0.5664v-8.7936c0-2.3464-0.21745-3.0204-2.3086-3.0204-0.92336 0-1.9281 0.3772-3.0685 0.9712v10.843c0 0.2968-0.24403 0.5664-0.54282 0.5664h-2.4983c-0.29879 0-0.54322-0.2696-0.54322-0.5664v-14.107c0-0.296 0.24443-0.5388 0.54322-0.5388h2.3626c0.29839 0 0.54282 0.2428 0.54282 0.5388v0.5664c1.5749-0.9976 2.607-1.2944 4.3989-1.2944 3.9105 0 4.6977 2.6164 4.6977 6.0416v8.7936c0 0.2968-0.24483 0.5664-0.54282 0.5664" fill="#fff"/>
<mask fill="#fff">
<use xlink:href="#path-3"/>
</mask>
<path d="m91.515 16.328c0-1.2944-0.5702-2.292-2.9054-2.292-2.3082 0-2.9328 1.0248-2.9328 2.292v0.2164c0 0.9976 0.40752 2.1304 2.9328 2.1304 2.2534 0 2.9054-0.782 2.9054-2.1304v-0.2164zm0.29879 11.248c0-0.5928-0.35315-0.9436-3.2042-1.618l-2.4169-0.5664c-0.40752 0.5664-0.67852 0.9172-0.67852 1.8884v0.242c0 1.1064 0.67852 1.7808 3.2315 1.7808 2.6066 0 3.0681-0.5664 3.0681-1.5376v-0.1892zm3.449-13.809l-0.89678 0.35c0.4349 0.6208 0.67893 1.214 0.67893 2.1576v0.1892c0 3.372-2.3352 4.9092-6.4353 4.9092-1.4392 0-2.4169-0.2428-2.9593-0.4584-0.32658 0.2156-0.46188 0.4584-0.46188 0.7008 0 0.5396 0.29799 0.7552 0.92336 0.8904l3.2042 0.7548c3.6926 0.8632 6.0817 1.4296 6.0817 4.3156v0.1892c0 2.7516-2.036 4.2352-6.6519 4.2352-4.3997 0-6.7349-1.6456-6.7349-4.4784v-0.242c0-1.1064 0.51624-2.1852 1.3852-2.9672-0.76067-0.5664-1.2221-1.5108-1.2221-2.482v-0.0268c0-0.8356 0.35315-1.6724 1.086-2.184-0.81463-0.8368-1.113-1.808-1.113-3.1564v-0.1892c0-2.6968 1.765-4.9624 6.4627-4.9624h6.354c0.40752 0 0.73329 0.3232 0.73329 0.728v1.1328c0 0.4048-0.10872 0.4588-0.43409 0.594z" fill="#fff" mask="url(#mask-4)"/>
</g>
</g>
</g>
</svg>
