<svg width="32" height="32" viewBox="0 0 32 32" version="1.1" xmlns="http://www.w3.org/2000/svg" xmlns:xlink="http://www.w3.org/1999/xlink">
<title>whatsapp(3)</title>
<desc>Created using Figma</desc>
<g id="Canvas" transform="translate(3713 2760)">
<g id="whatsapp(3)">
<g id="Vector">
<use xlink:href="#path0_fill" transform="translate(-3713 -2760)" fill="#EDEDED"/>
</g>
<g id="Vector">
<use xlink:href="#path1_fill" transform="translate(-3710.24 -2757.24)" fill="#55CD6C"/>
</g>
<g id="Vector">
<use xlink:href="#path2_fill" transform="translate(-3704.89 -2751.56)" fill="#FEFEFE"/>
</g>
</g>
</g>
<defs>
<path id="path0_fill" d="M 0 32L 2.20688 24C 0.772438 21.5173 0 18.7586 0 15.8896C 0 7.17244 7.17244 0 15.9448 0C 24.7172 0 32 7.17244 32 15.8896C 32 24.6068 24.7173 32 15.9448 32C 13.1862 32 10.5379 31.1173 8.1655 29.7931L 0 32Z"/>
<path id="path1_fill" d="M 5.84825 24.1655L 6.34481 24.4414C 8.38619 25.7103 10.7586 26.4827 13.2414 26.4827C 20.4689 26.4827 26.4827 20.4689 26.4827 13.131C 26.4827 5.79306 20.4689 3.05176e-08 13.1862 3.05176e-08C 5.90344 3.05176e-08 3.05176e-08 5.84825 3.05176e-08 13.131C 3.05176e-08 15.6689 0.71725 18.1517 2.04138 20.2482L 2.37244 20.7448L 1.1035 25.3793L 5.84825 24.1655Z"/>
<path id="path2_fill" d="M 3.5897 0.055188L 2.54145 -2.21252e-07C 2.21038 -2.21252e-07 1.87938 0.110375 1.6587 0.331062C 1.16213 0.772437 0.334571 1.6 0.113884 2.7035C -0.272304 4.35869 0.334571 6.34488 1.76907 8.33106C 3.20357 10.3173 5.9622 13.5173 10.8173 14.8966C 12.3621 15.3379 13.5759 15.0621 14.5691 14.4552C 15.3415 13.9586 15.838 13.1862 16.0036 12.3586L 16.1691 11.5862C 16.2243 11.3655 16.1139 11.0896 15.8932 10.9793L 12.4173 9.37931C 12.1966 9.26894 11.9208 9.32412 11.7553 9.54481L 10.3759 11.3103C 10.2656 11.4207 10.1001 11.4758 9.93457 11.4207C 8.99663 11.0896 5.85182 9.7655 4.14145 6.45519C 4.08626 6.28969 4.08626 6.12413 4.19663 6.01381L 5.52076 4.52419C 5.63113 4.35869 5.68626 4.138 5.63113 3.97244L 4.03113 0.38625C 3.97588 0.220688 3.81038 0.055188 3.5897 0.055188Z"/>
</defs>
</svg>
